HIERARCHY
ROOT Hips
{
 OFFSET 0.000000 0.000000 0.000000
 CHANNELS 6 Xposition Yposition Zposition Yrotation Xrotation Zrotation
 JOINT Chest
 {
  OFFSET 0.000000 9.585900 0.002600
  CHANNELS 3 Yrotation Xrotation Zrotation
  JOINT Chest2
  {
   OFFSET 0.000000 9.601200 -0.005300
   CHANNELS 3 Yrotation Xrotation Zrotation
   JOINT Chest3
   {
    OFFSET 0.000000 9.561800 0.000000
    CHANNELS 3 Yrotation Xrotation Zrotation
    JOINT Chest4
    {
     OFFSET 0.000000 9.552100 0.000000
     CHANNELS 3 Yrotation Xrotation Zrotation
     JOINT Neck
     {
      OFFSET 0.000000 14.453000 0.000000
      CHANNELS 3 Yrotation Xrotation Zrotation
      JOINT Head
      {
       OFFSET 0.000000 8.936500 -0.011300
       CHANNELS 3 Yrotation Xrotation Zrotation
       End Site
       {
        OFFSET 0.000000 17.073600 -0.006000
       }
      }
     }
     JOINT RightCollar
     {
      OFFSET -2.921100 9.558500 0.000000
      CHANNELS 3 Yrotation Xrotation Zrotation
      JOINT RightShoulder
      {
       OFFSET -13.519700 0.000000 0.000000
       CHANNELS 3 Yrotation Xrotation Zrotation
       JOINT RightElbow
       {
        OFFSET 0.000000 -29.696600 0.000000
        CHANNELS 3 Yrotation Xrotation Zrotation
        JOINT RightWrist
        {
         OFFSET 0.000000 -24.004700 0.000000
         CHANNELS 3 Yrotation Xrotation Zrotation
         End Site
         {
          OFFSET 0.000000 -17.728500 0.000000
         }
        }
       }
      }
     }
     JOINT LeftCollar
     {
      OFFSET 2.921100 9.558500 0.000000
      CHANNELS 3 Yrotation Xrotation Zrotation
      JOINT LeftShoulder
      {
       OFFSET 13.519700 0.000000 0.000000
       CHANNELS 3 Yrotation Xrotation Zrotation
       JOINT LeftElbow
       {
        OFFSET 0.000000 -29.696600 0.000000
        CHANNELS 3 Yrotation Xrotation Zrotation
        JOINT LeftWrist
        {
         OFFSET 0.000000 -24.004700 0.000000
         CHANNELS 3 Yrotation Xrotation Zrotation
         End Site
         {
          OFFSET 0.000000 -17.728500 0.000000
         }
        }
       }
      }
     }
    }
   }
  }
 }
 JOINT RightHip
 {
  OFFSET -7.771700 -0.012900 -0.001300
  CHANNELS 3 Yrotation Xrotation Zrotation
  JOINT RightKnee
  {
   OFFSET 0.000000 -40.869800 0.001200
   CHANNELS 3 Yrotation Xrotation Zrotation
   JOINT RightAnkle
   {
    OFFSET 0.000000 -39.717900 0.002100
    CHANNELS 3 Yrotation Xrotation Zrotation
    JOINT RightToe
    {
     OFFSET 0.000000 -4.965400 11.033500
     CHANNELS 3 Yrotation Xrotation Zrotation
     End Site
     {
      OFFSET 0.000000 -1.423100 5.872300
     }
    }
   }
  }
 }
 JOINT LeftHip
 {
  OFFSET 7.771700 -0.012900 -0.001300
  CHANNELS 3 Yrotation Xrotation Zrotation
  JOINT LeftKnee
  {
   OFFSET 0.000000 -40.869800 0.001200
   CHANNELS 3 Yrotation Xrotation Zrotation
   JOINT LeftAnkle
   {
    OFFSET 0.000000 -39.717900 0.002100
    CHANNELS 3 Yrotation Xrotation Zrotation
    JOINT LeftToe
    {
     OFFSET 0.000000 -4.965400 11.033500
     CHANNELS 3 Yrotation Xrotation Zrotation
     End Site
     {
      OFFSET 0.000000 -1.423100 5.872300
     }
    }
   }
  }
 }
}
MOTION
Frames: 16
Frame Time: 0.008333
0.000000 85.388000 0.000000 0.000000 -5.767877 0.000000 0.000000 11.653817 0.000000 0.000000 -5.885947 0.000000 0.000000 -0.000000 0.000000 0.000000 -0.000000 0.000000 0.000000 12.528835 0.000000 0.000000 0.711642 0.000000 0.000000 -0.000000 0.000000 0.000000 0.000000 -90.000000 0.000000 -2.309062 0.000000 0.000000 2.309062 0.000000 0.000000 -0.000000 0.000000 0.000000 -0.000000 90.000000 0.000000 -2.309062 0.000000 0.000000 2.309062 0.000000 0.000000 8.520406 0.000000 0.000000 1.905762 0.000000 -0.000000 -4.658285 0.000000 0.000000 -0.000000 0.000000 0.000000 8.520406 0.000000 0.000000 1.905762 0.000000 -0.000000 -4.658285 0.000000 0.000000 -0.000000 0.000000
-25.986999 55.706516 33.763585 -167.562520 -28.809890 -11.055781 -3.734807 14.423760 7.005031 -2.747315 8.436903 1.778413 -3.407249 10.540388 2.157779 -2.746423 8.441797 1.778569 -0.701022 17.155693 -2.481666 -0.171156 -7.659351 -2.451063 8.302332 -5.329843 -6.282760 -2.262099 -23.510215 2.848772 50.824817 -32.787441 -33.742718 12.134764 11.384057 -12.511094 -11.790360 -3.717072 -4.484578 -9.705133 -22.683785 3.485558 -50.815858 -28.014318 46.112756 -4.126958 0.377348 -1.039946 -25.403585 -29.483202 3.370265 77.662925 86.321532 75.063919 3.965814 -29.273723 -2.514800 -2.462577 4.089980 -1.117276 -14.284898 -45.801396 5.792904 178.129255 72.816835 175.904365 -1.664551 -27.046292 2.513208 -0.117275 -0.722668 -0.064178
-25.985532 55.705255 33.765789 -167.558204 -28.816757 -11.057457 -3.734854 14.437899 7.005696 -2.748438 8.431440 1.779482 -3.402938 10.558415 2.162201 -2.748090 8.434465 1.778043 -0.769042 17.139126 -2.504904 -0.242314 -7.684603 -2.467466 8.273613 -5.315511 -6.279748 -2.224862 -23.541018 2.844301 50.864356 -32.798737 -33.789075 12.140176 11.401160 -12.500778 -11.806482 -3.707832 -4.473908 -9.709186 -22.692150 3.491387 -50.847797 -28.021199 46.139772 -4.114430 0.398730 -1.031159 -25.402484 -29.479663 3.370296 77.676153 86.327066 75.076885 3.958565 -29.271251 -2.510574 -2.458355 4.088433 -1.116401 -14.286130 -45.796982 5.790785 178.122349 72.816923 175.900363 -1.663451 -27.047908 2.510019 -0.115278 -0.718140 -0.061108
-25.983620 55.703433 33.768986 -167.552065 -28.826683 -11.058320 -3.745784 14.423359 7.006168 -2.746257 8.453864 1.774686 -3.406233 10.522542 2.174276 -2.749753 8.428408 1.780075 -0.784392 17.180453 -2.527968 -0.323574 -7.704143 -2.481189 8.261439 -5.251976 -6.289412 -2.197309 -23.558732 2.844769 50.866683 -32.800448 -33.808885 12.143639 11.402460 -12.504433 -11.811768 -3.655320 -4.495235 -9.731178 -22.688856 3.503265 -50.868414 -28.030384 46.171703 -4.111705 0.413438 -1.013756 -25.402727 -29.473992 3.365868 77.693238 86.330304 75.094138 3.953613 -29.271375 -2.507534 -2.455910 4.090343 -1.117703 -14.285236 -45.791159 5.786818 178.115993 72.816868 175.896871 -1.664939 -27.047530 2.507424 -0.116298 -0.714399 -0.060814
-25.981285 55.700728 33.773703 -167.550624 -28.839290 -11.054037 -3.751954 14.409980 7.004308 -2.748629 8.455984 1.772472 -3.405776 10.519852 2.174415 -2.748409 8.410933 1.783269 -0.828170 17.197631 -2.548471 -0.359981 -7.714663 -2.495970 8.240814 -5.179183 -6.285468 -2.161660 -23.586597 2.838963 50.869806 -32.804921 -33.833805 12.141646 11.406509 -12.508220 -11.819977 -3.599743 -4.507931 -9.775775 -22.682413 3.510674 -50.869931 -28.039039 46.222930 -4.092472 0.436133 -1.021293 -25.396001 -29.475452 3.372141 77.810794 86.343366 75.205553 3.918576 -29.254715 -2.496617 -2.435209 4.074785 -1.107975 -14.277459 -45.785930 5.777312 178.121292 72.817079 175.905795 -1.660956 -27.044034 2.502469 -0.115784 -0.713003 -0.059357
-25.973963 55.697636 33.779932 -167.573696 -28.855793 -11.062335 -3.730526 14.389595 7.027936 -2.749526 8.426143 1.777522 -3.405149 10.534439 2.166805 -2.747604 8.404259 1.782856 -0.897697 17.165904 -2.576076 -0.375593 -7.687691 -2.510589 8.210493 -5.082885 -6.272780 -2.124845 -23.625306 2.825800 50.887354 -32.827834 -33.876740 12.131916 11.424529 -12.501323 -11.843791 -3.479308 -4.499224 -9.772529 -22.747968 3.496170 -50.884504 -28.046854 46.256373 -4.091042 0.444053 -1.023229 -25.379504 -29.459392 3.393646 77.694154 86.337917 75.085602 3.932041 -29.257170 -2.490611 -2.459857 4.091002 -1.121490 -14.277750 -45.774666 5.807167 178.152452 72.812618 175.941617 -1.651140 -27.046606 2.495149 -0.119069 -0.711590 -0.058313
-25.968073 55.693394 33.788064 -167.576770 -28.872407 -11.066610 -3.728022 14.375718 7.034927 -2.747717 8.396472 1.780951 -3.402776 10.523348 2.165705 -2.754538 8.443280 1.775194 -0.941180 17.112293 -2.596342 -0.409698 -7.679290 -2.522609 8.192612 -5.023355 -6.261801 -2.103782 -23.646867 2.811287 50.910313 -32.901517 -33.959286 12.145548 11.464278 -12.445586 -11.847524 -3.401958 -4.491691 -9.802768 -22.782785 3.489702 -50.894795 -28.073899 46.306991 -4.090472 0.463051 -1.025853 -25.371766 -29.448424 3.400058 77.644910 86.338955 75.035045 3.935700 -29.260355 -2.488034 -2.470360 4.104525 -1.126420 -14.278705 -45.767482 5.814187 178.168007 72.811133 175.963540 -1.646214 -27.044935 2.491774 -0.117371 -0.706195 -0.063012
-25.962297 55.689101 33.796785 -167.581460 -28.901021 -11.067097 -3.719637 14.392345 7.036237 -2.744992 8.353803 1.786295 -3.400239 10.515854 2.164109 -2.749147 8.420366 1.775901 -0.977033 17.156756 -2.612242 -0.463338 -7.720678 -2.538787 8.168626 -4.931103 -6.253200 -2.101334 -23.641846 2.802662 50.938368 -32.978021 -34.034895 12.154246 11.494894 -12.394507 -11.858414 -3.256389 -4.493394 -9.836247 -22.833257 3.482088 -50.913588 -28.124398 46.371106 -4.089722 0.498034 -1.046709 -25.341978 -29.436386 3.402280 77.692683 86.350276 75.090823 3.908503 -29.243140 -2.478845 -2.453070 4.095744 -1.119648 -14.278011 -45.749877 5.810106 178.194577 72.810028 175.997658 -1.628368 -27.040272 2.475045 -0.113542 -0.703009 -0.064055
-25.957251 55.687979 33.801072 -167.595925 -28.977704 -11.064309 -3.699408 14.416291 7.039322 -2.744005 8.376278 1.782414 -3.395997 10.499784 2.165572 -2.744012 8.399922 1.776462 -1.008570 17.180430 -2.626534 -0.483204 -7.721535 -2.545619 8.136277 -4.822458 -6.231035 -2.088466 -23.680756 2.783906 50.972777 -33.046449 -34.105422 12.154545 11.525413 -12.347420 -11.869787 -3.168362 -4.503164 -9.846977 -22.845628 3.472656 -50.938531 -28.178183 46.438560 -4.088494 0.524487 -1.071009 -25.291403 -29.373778 3.375634 77.644283 86.346894 75.045919 3.908459 -29.239702 -2.478716 -2.460829 4.101219 -1.121259 -14.241719 -45.678622 5.793178 178.205696 72.810167 176.014292 -1.622419 -27.040438 2.466513 -0.115523 -0.704207 -0.063080
-25.950791 55.683159 33.813552 -167.594357 -29.006985 -11.068547 -3.701290 14.396922 7.047943 -2.743226 8.399393 1.776023 -3.390432 10.491005 2.175316 -2.741358 8.402749 1.776901 -1.052626 17.146153 -2.656437 -0.549687 -7.728458 -2.564914 8.098549 -4.710861 -6.183048 -2.058911 -23.752603 2.727373 51.000400 -33.088472 -34.150068 12.140926 11.531260 -12.331533 -11.879849 -3.112786 -4.515230 -9.844160 -22.853984 3.458120 -50.981486 -28.243744 46.519120 -4.037895 0.531285 -1.077292 -25.275542 -29.355151 3.370904 77.570439 86.347360 74.977550 3.911994 -29.238404 -2.481466 -2.468329 4.113408 -1.122433 -14.253614 -45.663381 5.801454 178.215226 72.809636 176.022711 -1.615058 -27.028286 2.455416 -0.122090 -0.707160 -0.060619
-25.944892 55.679148 33.826900 -167.589620 -29.041232 -11.073169 -3.714203 14.360088 7.065638 -2.737788 8.432555 1.765244 -3.385252 10.505209 2.181447 -2.737258 8.410932 1.779135 -1.107941 17.115830 -2.690066 -0.619295 -7.720561 -2.589340 8.071361 -4.633012 -6.154774 -2.070046 -23.732581 2.681637 51.118095 -33.249696 -34.322667 12.160538 11.595269 -12.254961 -11.895615 -3.038282 -4.528232 -9.823993 -22.860868 3.414031 -51.071513 -28.320713 46.663138 -4.045661 0.578611 -1.120581 -25.263110 -29.330703 3.360658 77.445479 86.348837 74.856244 3.924856 -29.238263 -2.486149 -2.478778 4.128465 -1.124885 -14.250858 -45.642919 5.794182 178.209096 72.812416 176.027725 -1.611459 -27.018456 2.443396 -0.120210 -0.703274 -0.060565
-25.940397 55.677551 33.838844 -167.587522 -29.095198 -11.074861 -3.709830 14.399634 7.067082 -2.730930 8.409888 1.786995 -3.382195 10.539265 2.169983 -2.731641 8.421651 1.782240 -1.168794 17.089021 -2.716697 -0.670141 -7.689589 -2.609288 8.048134 -4.582620 -6.131479 -2.069552 -23.739824 2.641735 51.209838 -33.399679 -34.486895 12.200109 11.681399 -12.155661 -11.930023 -2.909304 -4.546978 -9.823083 -22.959641 3.426456 -51.140151 -28.402447 46.793139 -4.051480 0.627984 -1.174493 -25.238511 -29.289086 3.337440 77.296863 86.351584 74.712094 3.935695 -29.232165 -2.488109 -2.483808 4.136927 -1.127660 -14.235414 -45.600928 5.769283 178.162108 72.816704 175.998005 -1.608235 -27.005156 2.422405 -0.117331 -0.704270 -0.059308
-25.937538 55.676828 33.852310 -167.589218 -29.146162 -11.069009 -3.702562 14.437971 7.063698 -2.722414 8.406664 1.791763 -3.383642 10.554489 2.167941 -2.711904 8.434728 1.790086 -1.246776 17.107295 -2.747386 -0.721492 -7.676930 -2.622333 8.019728 -4.526576 -6.100643 -2.070922 -23.747326 2.601049 51.302792 -33.537673 -34.652580 12.234677 11.752749 -12.069017 -11.966651 -2.805249 -4.560802 -9.831145 -23.055878 3.447325 -51.198782 -28.477247 46.911383 -4.013034 0.626148 -1.178028 -25.211008 -29.256393 3.309563 77.175475 86.355405 74.595521 3.940828 -29.217453 -2.489190 -2.484145 4.138159 -1.128956 -14.214198 -45.562543 5.746145 178.146535 72.825440 175.988194 -1.604337 -26.987788 2.414287 -0.116877 -0.706382 -0.060314
-25.935870 55.678056 33.865602 -167.588375 -29.201950 -11.064238 -3.700535 14.432540 7.061597 -2.714364 8.445974 1.788584 -3.386170 10.576024 2.167592 -2.698585 8.441917 1.793340 -1.287986 17.113907 -2.759978 -0.817727 -7.628402 -2.641075 7.996057 -4.453764 -6.061889 -2.083181 -23.754256 2.565947 51.418664 -33.683602 -34.841396 12.252589 11.815379 -11.998064 -11.999175 -2.701948 -4.568068 -9.835733 -23.142569 3.464688 -51.267866 -28.551190 47.039700 -3.997448 0.638542 -1.197211 -25.203633 -29.214141 3.273116 77.025119 86.340300 74.438529 3.971653 -29.206511 -2.495608 -2.508902 4.145744 -1.143491 -14.179469 -45.516881 5.707588 178.082793 72.837678 175.942418 -1.606687 -26.973563 2.402378 -0.115903 -0.705358 -0.060308
-25.935285 55.685360 33.871511 -167.598402 -29.312904 -11.064295 -3.671538 14.512119 7.061934 -2.701159 8.445286 1.793169 -3.347354 10.582750 2.181197 -2.749255 8.462366 1.784176 -1.336258 17.149688 -2.782596 -0.919505 -7.599733 -2.656145 7.988557 -4.362632 -6.018935 -2.111268 -23.760935 2.540892 51.557776 -33.832891 -35.052866 12.274266 11.866435 -11.924582 -12.016228 -2.575415 -4.571548 -9.832619 -23.212603 3.468793 -51.368506 -28.634692 47.212583 -3.997930 0.657462 -1.232391 -25.158238 -29.113808 3.224102 76.765102 86.334699 74.177297 3.975463 -29.187119 -2.494035 -2.512843 4.138150 -1.147593 -14.115318 -45.403236 5.659132 178.023669 72.852116 175.902054 -1.605450 -26.969732 2.396607 -0.115725 -0.706928 -0.064834
-25.934544 55.688154 33.887338 -167.590699 -29.351044 -11.067607 -3.671125 14.540972 7.059878 -2.679311 8.418961 1.802274 -3.332863 10.593186 2.184108 -2.747980 8.481579 1.784256 -1.428933 17.182795 -2.811362 -1.042453 -7.566483 -2.670018 7.950825 -4.256924 -5.973245 -2.149335 -23.767589 2.521094 51.718000 -33.980220 -35.291286 12.284576 11.876722 -11.917887 -12.064474 -2.430447 -4.571631 -9.815043 -23.241277 3.443781 -51.520835 -28.731742 47.459169 -3.998555 0.688316 -1.286754 -25.150596 -29.083020 3.204015 76.486998 86.333000 73.903071 3.971289 -29.172936 -2.493670 -2.503592 4.144723 -1.146449 -14.092198 -45.374326 5.629048 177.958052 72.867393 175.856971 -1.606384 -26.950896 2.387130 -0.115965 -0.705050 -0.066275
